<svg width="1440" height="600" viewBox="0 0 1440 600" fill="none" xmlns="http://www.w3.org/2000/svg">
<path opacity="0.3" d="M167.854 113.867H1440V578.784C1440 578.784 1313.67 535.028 1194.85 578.784C1076.02 622.541 949.694 578.784 949.694 578.784C949.694 578.784 787.142 531.05 727.068 578.784C666.995 626.519 557.449 578.784 557.449 578.784C557.449 578.784 472.639 542.983 380.762 578.784C288.885 614.586 167.854 578.784 167.854 578.784V113.867Z" fill="#3D82F9" fill-opacity="0.8"/>
<path opacity="0.3" d="M100.713 110.386H1372.86V575.304C1372.86 575.304 1246.53 531.547 1127.71 575.304C1008.88 619.061 882.553 575.304 882.553 575.304C882.553 575.304 720.001 527.569 659.927 575.304C599.854 623.039 490.308 575.304 490.308 575.304C490.308 575.304 405.498 539.503 313.621 575.304C221.743 611.105 100.713 575.304 100.713 575.304V110.386Z" fill="#3D82F9" fill-opacity="0.8"/>
<path d="M82.1606 104.917H1354.31V569.834C1354.31 569.834 1227.98 526.077 1109.15 569.834C990.332 613.591 864 569.834 864 569.834C864 569.834 701.448 522.099 641.375 569.834C581.301 617.569 471.755 569.834 471.755 569.834C471.755 569.834 386.946 534.033 295.068 569.834C203.191 605.635 82.1606 569.834 82.1606 569.834V104.917Z" fill="#3D82F9"/>
<path d="M82.1606 104.917H1354.31V569.834C1354.31 569.834 1227.98 526.077 1109.15 569.834C990.332 613.591 864 569.834 864 569.834C864 569.834 701.448 522.099 641.375 569.834C581.301 617.569 471.755 569.834 471.755 569.834C471.755 569.834 386.946 534.033 295.068 569.834C203.191 605.635 82.1606 569.834 82.1606 569.834V104.917Z" fill="url(#paint0_linear)"/>
<path opacity="0.1" d="M233.231 337.914C64.1288 288.092 82.8949 202.583 82.895 105.125L535.214 105.125C699.464 169.782 617.664 170.993 567.318 255.154C550.782 271.414 534.936 285.421 519.216 297.32C469.99 334.584 422.008 351.18 357.981 351.563C322.357 351.776 281.767 346.971 233.231 337.914Z" fill="black" fill-opacity="0.2"/>
<defs>
<linearGradient id="paint0_linear" x1="1333.99" y1="104.917" x2="292.598" y2="579.936" gradientUnits="userSpaceOnUse">
<stop stop-color="#4D8BF6"/>
<stop offset="0.365293" stop-color="#76A8FE" stop-opacity="0.472647"/>
<stop offset="0.622759" stop-color="#5491FC" stop-opacity="0.23473"/>
<stop offset="0.829627" stop-color="white" stop-opacity="0"/>
</linearGradient>
</defs>
</svg>
