<svg width="34" height="34" viewBox="0 0 34 34" fill="none" xmlns="http://www.w3.org/2000/svg">
<path d="M16.9993 20.4033C18.8749 20.4033 20.404 18.8769 20.404 17C20.404 16.259 20.1616 15.575 19.7603 15.0162C19.142 14.1589 18.1367 13.5967 17.0014 13.5967C15.8654 13.5967 14.8608 14.1582 14.2411 15.0155C13.8385 15.5743 13.5981 16.2584 13.5974 16.9993C13.5954 18.8762 15.1231 20.4033 16.9993 20.4033Z" fill="#ABB4BD"/>
<path d="M24.4311 12.8366V9.98388V9.55933L24.0044 9.5607L21.1531 9.5696L21.164 12.8476L24.4311 12.8366Z" fill="#ABB4BD"/>
<path d="M17 0C7.62624 0 0 7.62624 0 17C0 26.3731 7.62624 34 17 34C26.3731 34 34 26.3731 34 17C34 7.62624 26.3744 0 17 0ZM26.6682 15.0162V22.9321C26.6682 24.994 24.9919 26.6696 22.9314 26.6696H11.0686C9.00741 26.6696 7.33179 24.994 7.33179 22.9321V15.0162V11.0692C7.33179 9.0081 9.00741 7.33247 11.0686 7.33247H22.9308C24.9919 7.33247 26.6682 9.0081 26.6682 11.0692V15.0162Z" fill="#ABB4BD"/>
<path d="M22.2884 17C22.2884 19.9151 19.9164 22.2885 17 22.2885C14.0835 22.2885 11.7122 19.9151 11.7122 17C11.7122 16.2988 11.8519 15.6284 12.1011 15.0162H9.21484V22.9321C9.21484 23.9552 10.0455 24.7837 11.0678 24.7837H22.93C23.951 24.7837 24.783 23.9552 24.783 22.9321V15.0162H21.8953C22.1467 15.6284 22.2884 16.2988 22.2884 17Z" fill="#ABB4BD"/>
</svg>
