<svg width="34" height="34" viewBox="0 0 34 34" fill="none" xmlns="http://www.w3.org/2000/svg">
<path d="M17 0C7.62624 0 0 7.62624 0 17C0 26.3731 7.62624 34 17 34C26.3731 34 34 26.3731 34 17C34 7.62624 26.3744 0 17 0ZM24.5838 13.1092C24.5913 13.2776 24.5954 13.4474 24.5954 13.6173C24.5954 18.7879 20.6608 24.7481 13.4618 24.7481C11.2521 24.7481 9.19504 24.1024 7.46395 22.9917C7.77004 23.028 8.08161 23.0465 8.39729 23.0465C10.2311 23.0465 11.9177 22.4206 13.2571 21.3715C11.5452 21.34 10.0996 20.2088 9.60179 18.6537C9.84009 18.6989 10.0859 18.7242 10.3372 18.7242C10.694 18.7242 11.0405 18.6777 11.3685 18.588C9.57851 18.2292 8.2302 16.648 8.2302 14.7512C8.2302 14.7348 8.2302 14.7177 8.23089 14.7019C8.75816 14.9943 9.36144 15.171 10.0024 15.1908C8.95332 14.4903 8.26239 13.292 8.26239 11.9348C8.26239 11.2172 8.45481 10.5447 8.79171 9.96677C10.7207 12.3347 13.6049 13.8918 16.8562 14.0562C16.7891 13.7693 16.7555 13.4714 16.7555 13.1639C16.7555 11.0035 18.5072 9.25119 20.6676 9.25119C21.7934 9.25119 22.8089 9.72642 23.5238 10.4865C24.416 10.3112 25.2514 9.98663 26.0095 9.53674C25.715 10.4509 25.0967 11.2172 24.2866 11.702C25.0789 11.6075 25.8349 11.3979 26.534 11.0864C26.0122 11.8697 25.3487 12.5593 24.5838 13.1092Z" fill="#ABB4BD"/>
</svg>
